<?xml version="1.0" standalone="no"?>
<!DOCTYPE svg PUBLIC "-//W3C//DTD SVG 20010904//EN"
 "http://www.w3.org/TR/2001/REC-SVG-20010904/DTD/svg10.dtd">
<svg version="1.0" xmlns="http://www.w3.org/2000/svg"
 width="128.000000pt" height="128.000000pt" viewBox="0 0 128.000000 128.000000"
 preserveAspectRatio="xMidYMid meet">

<g transform="translate(0.000000,128.000000) scale(0.100000,-0.100000)"
fill="#000000" stroke="none">
<path d="M5 640 l0 -630 635 0 635 0 0 630 0 630 -635 0 -635 0 0 -630z m686
456 c26 -6 27 -7 17 -46 -16 -61 -54 -51 -61 15 l-4 40 -1 -42 c-2 -33 -7 -43
-23 -48 -26 -9 -29 -6 -32 41 -2 35 0 39 28 44 17 4 35 5 40 4 6 -1 22 -5 36
-8z m75 -24 c0 -4 4 -15 8 -24 5 -10 1 -27 -9 -42 -20 -30 -28 -32 -44 -12
-18 22 0 82 23 78 13 -2 16 1 10 10 -4 8 -3 10 2 5 5 -5 9 -12 10 -15z m-246
-7 c-7 -8 -8 -15 -2 -15 5 0 15 7 22 15 19 23 27 18 35 -21 7 -40 -15 -78 -34
-59 -24 25 -40 69 -29 82 6 7 13 13 15 13 3 0 0 -7 -7 -15z m-6 -70 c8 -13 14
-37 13 -54 l-2 -30 -30 19 c-21 14 -29 26 -27 42 1 13 4 30 5 39 2 21 22 14
41 -16z m312 23 c5 -7 3 -8 -6 -3 -8 5 -11 3 -8 -6 3 -8 10 -13 15 -12 16 3 8
-35 -12 -57 -23 -25 -32 -25 -45 0 -12 21 -3 45 26 74 19 19 21 19 30 4z
m-342 -106 c11 -13 15 -28 11 -41 -7 -22 -16 -25 -51 -15 -20 5 -21 9 -12 40
5 19 6 39 2 45 -10 17 28 -6 50 -29z m380 -17 c8 -25 11 -43 6 -40 -6 3 -24 2
-42 -3 -32 -9 -33 -8 -33 20 0 19 8 36 25 48 14 11 26 20 27 20 0 0 8 -20 17
-45z m-272 -9 c4 -6 8 -31 8 -56 1 -40 2 -42 11 -20 6 14 9 41 7 61 -3 35 -3
35 27 29 28 -5 30 -9 33 -53 4 -61 20 -61 24 1 3 41 6 47 26 50 19 3 23 0 18
-15 -9 -32 -27 -185 -23 -197 3 -7 -9 -11 -32 -11 -34 0 -37 2 -33 27 2 16 1
45 -4 65 -8 38 -8 37 -14 -22 -5 -56 -6 -60 -35 -65 l-30 -6 -3 55 c-1 31 -8
83 -15 117 -13 60 -13 61 7 56 12 -3 24 -10 28 -16z m-104 -81 c5 -23 -16 -45
-43 -45 -20 0 -23 6 -26 43 l-4 43 35 -12 c19 -7 36 -19 38 -29z m382 -5 c0
-28 -4 -40 -14 -40 -31 0 -46 13 -46 40 0 28 2 30 53 39 4 0 7 -17 7 -39z
m-375 -75 c0 -25 -6 -39 -24 -51 -19 -14 -25 -14 -32 -3 -8 13 -11 38 -7 57 0
4 15 12 32 18 17 7 31 12 31 13 0 0 0 -15 0 -34z m367 -22 c-5 -40 -17 -48
-44 -27 -17 12 -24 27 -24 49 l1 31 35 -12 c30 -11 35 -16 32 -41z m-337 -55
c0 -18 -7 -44 -14 -57 l-13 -24 -19 24 c-10 13 -19 29 -19 35 0 12 28 39 50
47 8 3 15 6 16 6 0 1 0 -14 -1 -31z m298 -3 c26 -25 36 -42 18 -31 -5 3 -16
-6 -26 -20 l-17 -26 -17 28 c-23 38 -33 66 -22 59 5 -3 12 -1 16 5 9 15 18 12
48 -15z m-247 -27 c4 -7 3 -8 -4 -4 -7 4 -12 3 -12 -3 0 -5 5 -11 11 -13 15
-5 0 -78 -16 -78 -6 0 -20 9 -29 19 -17 18 -17 21 0 48 16 24 33 42 41 43 1 0
5 -5 9 -12z m144 -3 c-8 -9 -9 -15 -2 -15 6 0 14 5 17 11 8 12 29 -14 44 -54
8 -20 6 -28 -7 -39 -15 -12 -16 -11 -3 5 8 10 9 17 3 17 -6 0 -14 -5 -17 -11
-12 -19 -28 -4 -40 38 -9 30 -9 45 -2 52 16 16 21 13 7 -4z m-75 -79 l0 -53
-30 10 c-39 13 -37 10 -30 50 6 29 12 37 34 40 14 2 26 5 26 6 0 0 0 -23 0
-53z m61 8 c7 -38 -4 -54 -38 -54 -14 0 -18 8 -18 38 0 43 5 52 31 52 13 0 20
-11 25 -36z m-197 -96 c-11 -40 -2 -91 14 -81 7 3 9 3 5 -2 -4 -4 -27 -8 -51
-9 -43 -1 -44 0 -36 22 15 38 9 50 -6 15 -8 -18 -20 -33 -27 -34 -99 -5 -96
-6 -87 20 5 13 7 39 3 57 -6 34 -6 34 33 34 31 0 43 -5 52 -22 11 -21 11 -21
8 -2 -4 18 1 21 42 23 25 1 47 4 50 7 9 9 9 3 0 -28z m314 -4 c2 -13 0 -27 -6
-31 -6 -3 -7 -1 -3 5 8 13 -6 17 -17 5 -8 -7 11 -33 24 -33 17 0 29 38 20 62
-8 22 -7 23 48 23 54 0 57 -1 53 -23 -2 -12 1 -36 8 -52 7 -17 11 -33 8 -35
-8 -8 -316 -10 -311 -2 2 4 8 5 13 2 14 -8 23 57 12 85 l-10 25 78 -3 c74 -3
78 -5 83 -28z m-178 2 c30 -30 31 -40 5 -66 -25 -25 -86 -27 -112 -3 -19 17
-24 58 -8 68 6 4 8 9 6 13 -2 4 16 8 40 10 36 2 49 -2 69 -22z m-286 -161 c-5
-22 -8 -57 -9 -77 0 -42 -6 -48 -52 -51 l-33 -3 -3 58 c-2 31 -7 70 -11 85
l-8 28 62 0 61 0 -7 -40z m196 -46 c0 -83 -1 -86 -21 -79 -11 4 -27 4 -36 -1
-11 -6 -16 -5 -15 4 2 57 -4 90 -14 80 -6 -6 -10 -29 -8 -50 l4 -38 -50 0 -50
0 -3 43 c-4 61 5 84 31 80 20 -3 22 -9 22 -61 0 -31 4 -57 8 -57 5 0 7 28 5
63 l-3 62 49 -2 c45 -2 48 -1 44 20 -3 17 0 22 16 22 20 0 21 -6 21 -86z m103
54 c4 -25 -22 -33 -31 -10 -3 6 -5 -13 -5 -43 0 -30 2 -47 5 -37 3 10 10 16
16 14 7 -2 17 10 22 27 6 19 19 32 35 36 24 7 25 5 28 -45 3 -54 -13 -83 -42
-72 -7 3 -19 1 -25 -4 -8 -6 -8 -5 -1 3 6 7 10 19 10 27 0 11 -5 9 -16 -7 -31
-45 -64 -16 -64 58 0 23 5 50 11 61 14 27 53 21 57 -8z m255 -4 c3 -12 3 -35
0 -50 -3 -15 -1 -41 5 -56 9 -28 9 -29 -27 -26 -20 2 -40 4 -46 5 -5 0 -21 -2
-35 -5 -14 -4 -19 -4 -12 -1 8 4 11 26 10 67 -2 60 -2 61 -5 12 -5 -54 -18
-77 -42 -73 -9 1 -23 -1 -31 -6 -12 -7 -13 -6 -2 5 6 7 12 37 12 66 0 56 1 56
55 54 17 -1 40 -2 53 -1 20 0 22 -5 22 -60 0 -33 3 -60 8 -60 4 0 6 30 6 67
-1 38 0 71 3 76 8 14 21 7 26 -14z m75 -39 c2 -34 0 -40 -18 -40 -11 0 -20 -4
-20 -9 0 -5 9 -7 20 -4 23 6 26 -9 5 -27 -21 -18 -42 -6 -49 28 -9 39 8 80 36
85 13 2 23 5 23 6 0 0 1 -17 3 -39z m62 15 c0 -8 -6 -15 -12 -18 -8 -2 -13
-20 -13 -42 0 -21 -5 -40 -12 -42 -13 -5 -19 27 -15 78 3 31 8 37 28 37 13 0
24 -6 24 -13z"/>
<path d="M361 410 c0 -8 6 -24 14 -34 19 -25 19 -9 0 24 -8 14 -14 19 -14 10z"/>
<path d="M740 429 c0 -5 5 -7 10 -4 6 3 10 8 10 11 0 2 -4 4 -10 4 -5 0 -10
-5 -10 -11z"/>
<path d="M876 375 c4 -8 8 -15 10 -15 2 0 4 7 4 15 0 8 -4 15 -10 15 -5 0 -7
-7 -4 -15z"/>
<path d="M587 433 c-11 -10 -8 -43 3 -43 6 0 10 11 10 25 0 26 -2 29 -13 18z"/>
<path d="M282 290 c0 -19 2 -27 5 -17 2 9 2 25 0 35 -3 9 -5 1 -5 -18z"/>
<path d="M322 295 c0 -16 2 -22 5 -12 2 9 2 23 0 30 -3 6 -5 -1 -5 -18z"/>
<path d="M302 190 c0 -19 2 -27 5 -17 2 9 2 25 0 35 -3 9 -5 1 -5 -18z"/>
<path d="M380 233 c0 -10 5 -25 10 -33 7 -11 10 -7 10 18 0 17 -4 32 -10 32
-5 0 -10 -8 -10 -17z"/>
<path d="M512 220 c0 -19 2 -27 5 -17 2 9 2 25 0 35 -3 9 -5 1 -5 -18z"/>
<path d="M692 220 c0 -19 2 -27 5 -17 2 9 2 25 0 35 -3 9 -5 1 -5 -18z"/>
<path d="M763 235 c0 -27 2 -38 4 -22 2 15 2 37 0 50 -2 12 -4 0 -4 -28z"/>
</g>
</svg>
